<svg xmlns="http://www.w3.org/2000/svg" width="900" height="980" viewBox="0 0 900 980">
  <defs>
    <linearGradient id="dress" x1="0" y1="0" x2="1" y2="1">
      <stop offset="0" stop-color="#ff4d6d"/>
      <stop offset="1" stop-color="#9d4edd"/>
    </linearGradient>
    <linearGradient id="hair" x1="0" y1="0" x2="1" y2="1">
      <stop offset="0" stop-color="#2b1a3a"/>
      <stop offset="1" stop-color="#0b0618"/>
    </linearGradient>
    <radialGradient id="glow" cx="50%" cy="40%" r="60%">
      <stop offset="0" stop-color="rgba(255,117,143,.8)"/>
      <stop offset="1" stop-color="rgba(255,117,143,0)"/>
    </radialGradient>
    <filter id="soft" x="-20%" y="-20%" width="140%" height="140%">
      <feGaussianBlur stdDeviation="14"/>
    </filter>
  </defs>

  <rect width="900" height="980" fill="none"/>

  <circle cx="450" cy="330" r="260" fill="url(#glow)" filter="url(#soft)" opacity=".6"/>

  <g transform="translate(210,120)">
    <path d="M240 70c70 0 140 54 140 150 0 42-16 86-38 126l-40 70H178l-36-70c-22-40-38-84-38-126 0-96 66-150 136-150z" fill="url(#hair)"/>
    <circle cx="240" cy="210" r="88" fill="#fbd1c9"/>
    <path d="M172 210c2 60 52 94 68 98 16-4 66-38 68-98" fill="none" stroke="#f7b2a8" stroke-width="18" stroke-linecap="round"/>
    <circle cx="210" cy="200" r="8" fill="#3a1e2f"/>
    <circle cx="270" cy="200" r="8" fill="#3a1e2f"/>
    <path d="M215 235c16 10 40 10 56 0" stroke="#e38b8b" stroke-width="10" stroke-linecap="round" fill="none"/>
    <path d="M120 430c40-40 86-66 120-66h0c34 0 80 26 120 66l-18 210H138z" fill="url(#dress)"/>
    <path d="M140 444c18 40 26 102 26 150 0 40-4 78-10 110" stroke="rgba(255,255,255,.6)" stroke-width="10" stroke-linecap="round"/>
    <path d="M340 444c-18 40-26 102-26 150 0 40 4 78 10 110" stroke="rgba(255,255,255,.6)" stroke-width="10" stroke-linecap="round"/>
    <path d="M208 308c8 18 24 30 32 30 8 0 24-12 32-30" stroke="#f3a9a2" stroke-width="14" stroke-linecap="round" fill="none"/>
  </g>

  <g font-family="ui-sans-serif, system-ui" font-weight="900" font-size="64" fill="rgba(255,255,255,.92)">
    <text x="450" y="880" text-anchor="middle">My Vallentine</text>
  </g>
  <g font-size="70" opacity=".92">
    <text x="120" y="140">💗</text>
    <text x="740" y="160">💞</text>
    <text x="160" y="860">💕</text>
    <text x="720" y="840">💖</text>
  </g>
</svg>
